<svg data-v-423bf9ae="" xmlns="http://www.w3.org/2000/svg" viewBox="0 0 NaN NaN" class="iconAbove"><!----><!----><!----><g data-v-423bf9ae="" id="89c744c1-414e-4316-bf6e-e146f589cafa" fill="#ffffff" ><path d=""></path></g><!----><g data-v-423bf9ae="" id="c91947ca-1ff2-4e76-97b9-1aab45e676aa" stroke="none" fill="#010033"><path d="M49.387 25.815c-11.813 0-21.391 9.577-21.391 21.391s9.577 21.391 21.391 21.391 21.391-9.577 21.391-21.391S61.2 25.815 49.387 25.815zm-2.14 22.871a7.488 7.488 0 1 1 .002-14.974 7.488 7.488 0 0 1-.002 14.974z"></path><path d="M99.198 10.446c0-.002-.003-.004-.003-.005a8.042 8.042 0 0 0-.482-.895c-.209-.314-.425-.623-.688-.888-1.344-1.34-3.278-1.983-5.92-1.983h-51.45s-.224-.014-.349-.019c-.097-.387-.277-1.082-.277-1.082-.392-1.463-.872-3.25-3.054-4.553C35.715.306 34.062 0 31.575 0H18.566c-3.458 0-4.845.396-5.858.987-1.929 1.129-2.709 3.326-3.126 4.88l-.155.614H8.7v.194h-.771C3.112 6.676 0 9.798 0 14.637v62.689a3.767 3.767 0 0 0 3.763 3.764h92.475a3.768 3.768 0 0 0 3.763-3.764V14.604c-.001-1.668-.287-3.025-.803-4.158zm-4.053 65.79H4.854V39.465v-9.074h22.418c5.082-6.671 13.083-10.994 22.115-10.994.9 0 1.787.053 2.664.139.131.012.258.02.387.033a27.37 27.37 0 0 1 2.467.389l.441.092c.812.18 1.609.388 2.393.635.103.033.203.069.302.103 1.644.54 3.216 1.23 4.705 2.052.092.052.187.1.276.15.713.406 1.406.843 2.078 1.306.101.069.197.139.297.208.674.479 1.328.984 1.957 1.518.056.045.108.1.162.144a28.805 28.805 0 0 1 1.877 1.771c.002.003.004.003.004.007h.002a28.19 28.19 0 0 1 2.101 2.449h23.646l-.001 45.843z"></path></g><!----></svg>